<?xml version="1.0" encoding="UTF-8"?>
<svg version="1.1" viewBox="0 0 1835 1482" width="1835" height="1482" xmlns="http://www.w3.org/2000/svg">
<path transform="translate(1832)" d="m0 0h3v947h-1835v-770l118-1 105-2 102-3 100-4 101-5 129-8 120-9 114-10 102-10 109-12 100-12 84-11 107-15 86-13 100-16 99-17 104-19z" fill="#384693"/>
<path transform="translate(1832)" d="m0 0h3v947h-1835v-1l1019-1 12-12 8-7 12-12 8-7 19-19 8-7 30-30 8-7 59-59 7-8 34-34 7-8-143-1-1 5-11 29h-62l11-30 15-39 19-50 21-55 38-100 21-55 19-50 12-31 2-2 11 24 15 35 18 41 13 30 20 46 17 39 20 46 17 39v2l7-6 7-8 15-16 11-12 9-10 11-12 7-8 11-12 7-8 9-10 7-8 9-10 9-11 11-12 1-102h-100v-58l234-1 14-17 11-14 13-16 22-28 42-54 12-16 10-13 16-21 42-57 52-72 16-23 14-20z" fill="#3870B3"/>
<path transform="translate(0,1006)" d="m0 0h1835v59h-1835z" fill="#384693"/>
<path transform="translate(1834,3)" d="m0 0h1v944h-200l2-10 19-65 22-80 17-65 16-64 15-62 18-80 17-80 18-91 16-89 14-84 13-86z" fill="#5EC0DA"/>
<path transform="translate(1171,356)" d="m0 0 3 4 15 34 13 30 17 39 20 46 17 39 20 46 17 39 14 32 17 39 20 46 7 16v3h-61l-7-19-5-14v-3l-95 1h-95l-1 5-11 29h-62l11-30 15-39 19-50 21-55 38-100 21-55 19-50 12-31z" fill="#fff"/>
<path transform="translate(783,356)" d="m0 0 3 3 16 37 17 39 20 46 17 39 20 46 17 39 20 46 17 39 20 46 13 30v2h-61l-6-16-6-17v-2l-189 2-12 31-1 2h-61l1-5 20-53 19-50 21-55 19-50 21-55 38-100z" fill="#fff"/>
<path transform="translate(953,1006)" d="m0 0h882v59h-947l5-5 14-13 8-7 10-9 12-11 8-7z" fill="#3870B3"/>
<path transform="translate(427,356)" d="m0 0h21l26 3 22 5 22 8 20 10 17 11 14 11 13 12 12 13 7 9-2 4-21 16-18 13-7 5-5-5-7-9-9-10-10-9-15-10-15-8-17-6-18-4-9-1h-20l-18 3-18 6-21 11-14 10-13 12-10 11-12 18-11 23-6 20-3 19v32l4 22 7 21 8 16 8 13 11 14 14 14 15 11 18 10 18 7 20 4h26l18-3 21-7 21-11 12-9 10-9 8-8 11-15 9 6 19 14 21 16-2 5-13 15-15 15-17 13-16 10-17 9-21 8-24 6-24 3h-29l-21-3-19-5-19-7-16-8-11-6-16-11-11-9-13-12-11-12-12-16-12-20-9-19-9-27-4-20-2-19v-25l2-19 5-24 8-23 12-25 14-21 9-11 11-12 9-9 14-11 15-10 18-10 19-8 20-6 14-3z" fill="#fff"/>
<path transform="translate(1334,356)" d="m0 0h264v57h-104v355l-1 1h-59v-356h-100z" fill="#fff"/>
<path transform="translate(1173,495)" d="m0 0 3 4 18 41 34 78 18 41 9 21v1l-45 1h-103l10-30 17-48 17-49 17-48 4-11z" fill="#384693"/>
<path transform="translate(785,494)" d="m0 0 2 2 13 30 18 41 34 78 15 34v2l-45 1h-102l2-9 22-63 21-60 19-54z" fill="#384693"/>
<path transform="translate(1617,1006)" d="m0 0h218v59h-237l18-58z" fill="#5EC0DA"/>
<path transform="translate(445,1185)" d="m0 0h1v99h77l-8-18-8-13 2-4 11-12 2-3h2l7 16 5 17 2 16h34l1-87 17-10h3v98h38v-87l9-6 11-6v119h-225v-107l9-6z" fill="#384894"/>
<path transform="translate(1794,1185)" d="m0 0h1v119h-196l-1 10-5 16-7 13-10 14-6 5-20-16v-2l12-9 9-10 6-11 5-13 2-8-1-9-6-15-6-11-3-4 1-4 11-14 3-3 8 16 6 18 2 10v7h42l-10-24 14-15 2 2 9 28 2 8 25 1-5-12-9-16 2-5 11-14 3 3 7 16 4 15 1 13h26l-7-16-9-16 6-8 8-10 3 4 6 14 4 14 2 17 39 1v-87l9-6z" fill="#384794"/>
<path transform="translate(181,1185)" d="m0 0h1l1 98 55 1-7-16-9-16 6-8 8-8 1-2h2l8 18 4 15 2 16 50 1-7-17-9-15 6-7 9-10 2-1 7 15 5 16 2 14v5l31-1 4-18 7-14 6-7 6-3 6-1 9 2 8 6 7 9 6 14 3 15v10l-3 11-6 11-3 1-5-5-8-5-8-3-6-1-209-1-1-1v-106l16-10zm195 78-6 5-7 14v2l18 2 12 5 3 1v-11l-4-10-5-5-4-3z" fill="#384894"/>
<path transform="translate(1268,1185)" d="m0 0h1v119h-164l-2 13-5 14-8 15-11 14-4 2-14-12-5-4 1-3 13-10 10-13 7-16 3-14-4-14-10-19-3-5 12-15 4-4 7 14 6 18 3 15v4h89l-7-11-8-10-8-7-8-4-3-1h-16l-10 5-5-2 2-4 7-7 11-8 7-3h12l11 4 10 9 7 9 15 25 3 3 3 1 32 1v-88z" fill="#384794"/>
<path transform="translate(1526,1182)" d="m0 0 6 1 3 4v19l-2-1h-7l-18 10-21 13-8 5v1l20 4 13 5 11 7 8 7 7 10 5 11 3 13v13h-127l-2-7-1-4-7 12-11-2-39-1-1-4 2-17 5-13 8-13 8-10 9-8 10-5h10l5 4 8 16 5 16 3 16h89l-6-12-9-8-8-4-14-4-7-1-17-1v-25l5-10 11-8 45-27zm-129 72-8 4-5 4-7 10-4 9 28 1 14 3-3-12-5-12-5-6z" fill="#384794"/>
<path transform="translate(746,1232)" d="m0 0h10l5 4 6 11 5 14 5 21v2h73l-7-16-8-14 1-5 7-7 7-8 3 4 6 14 5 19 1 8v12l-2 13h-98l-2-7-1-4-7 12-11-2-39-1v-15l3-12 8-16 11-14 9-8zm-3 22-8 4-5 4-7 10-4 9 28 1 14 3-3-12-5-12-5-6z" fill="#384794"/>
<path transform="translate(905,1233)" d="m0 0 3 4 8 19 5 20 1 7 75 1-4-11-9-17-2-5 13-14 3-3 7 14 5 16 2 10v23l-1 7h-90l-1 11-6 18-9 15-8 10-3 4-5-2-14-12-3-2v-2l11-8 7-7 9-14 5-13 2-8v-7l-4-12-8-16-4-7 12-16z" fill="#384794"/>
<path transform="translate(131,1234)" d="m0 0 3 3 8 20 4 20v17l-2 10h-120l-9-2-8-5-5-6-2-6v-13l3-10 7-13 10-11 7 6v3l-7 11-3 8v8l3 5 5 3 5 1 101 1-4-11-10-18-1-4 10-11z" fill="#384894"/>
<path transform="translate(1307,1186)" d="m0 0h2v107l-18 11h-2v-107z" fill="#384894"/>
<path transform="translate(1047,1185)" d="m0 0h1v107l-18 11h-2v-107z" fill="#384894"/>
<path transform="translate(1834,1185)" d="m0 0h1v107l-16 10-4 1v-107z" fill="#384693"/>
<path transform="translate(685,1422)" d="m0 0h13l10 4 8 7 3 5v2h-10l-8-7-5-2h-9l-8 4-5 6-2 4v12l4 8 6 5 7 2 9-1 7-4 4-5 2-5h-30v-7h40v9l-3 8-6 7-8 5-7 2h-10l-10-3-8-6-5-7-3-10v-7l3-10 6-8 9-6z" fill="#384895"/>
<path transform="translate(346,1422)" d="m0 0h14l10 4 9 9 2 5h-11l-4-5-8-4h-9l-7 3-5 4-4 10v7l3 8 5 5 5 3 10 1 8-3 5-4 4-8h-31v-7h41l-1 11-4 8-7 7-9 4-4 1h-10l-11-4-8-7-6-12v-13l4-9 7-8 6-4z" fill="#384895"/>
<path transform="translate(146,1423)" d="m0 0 4 5 11 22 6 11 20-38 2 1 9 55v2h-9l-1-1-4-27-1-2-15 30h-2l-14-29v-2h-2v8l-3 22-1 1h-9l7-50 1-7z" fill="#384995"/>
<path transform="translate(1625,1421)" d="m0 0 5 5 10 11 9 11 10 11 4 5 1-42h9v59h-9l-13-15-12-14-4-5-1 34h-9z" fill="#384995"/>
<path transform="translate(93,1421)" d="m0 0 13 2 10 6 6 8 3 8v13l-4 9-7 8-9 5-4 1h-12l-9-3-9-7-5-9-2-7v-7l3-10 6-8 8-6zm-4 9-8 5-5 6-2 5v11l4 8 7 6 7 2 10-1 9-6 4-7 1-4v-8l-4-9-7-6-5-2z" fill="#384995"/>
<path transform="translate(393,1421)" d="m0 0 5 5 9 10 9 11 9 10 6 7 1-42h9v59h-9l-9-10-9-11-9-10-3-4-1 35h-8z" fill="#384A96"/>
<path transform="translate(898,1422)" d="m0 0 6 5 9 11 10 11 9 11 4 5 1-43h9v59h-9l-10-11-9-11-10-11-1-2-1 35h-8z" fill="#384895"/>
<path transform="translate(956,1421)" d="m0 0 5 5 11 12 9 11 10 11 4 5 1-43h8v59h-9l-9-11-9-10-9-11-2-2-1 34h-9z" fill="#384995"/>
<path transform="translate(1101,1422)" d="m0 0h28l9 4 8 7 5 10 1 10-3 12-7 9-8 5-7 2h-26zm8 8v16l1 27h17l8-4 6-9 1-3v-12l-4-8-8-6-3-1z" fill="#384995"/>
<path transform="translate(778,1422)" d="m0 0h27l8 4 6 7 2 6v7l-3 8-7 7 10 19v1h-10l-9-16-15-1v17h-9zm9 7v27h14l6-3 4-6v-9l-4-6-6-3z" fill="#384794"/>
<path transform="translate(1511,1422)" d="m0 0h27l8 4 6 7 2 6v8l-4 8-6 6 10 19v1h-10l-8-15v-2h-16v17h-9zm9 7v27h15l6-4 3-4 1-7-3-7-5-4-3-1z" fill="#384794"/>
<path transform="translate(979,1177)" d="m0 0 10 2v9l-1 6h-11l-10 5-4 7 7 2 12-1 14-5h2l-2 9-3 7-19 7-12 7-7 6v-8l5-10 2-3-5-1-3-3-1-3v-7l3-9 8-10 10-6z" fill="#384894"/>
<path transform="translate(432,1134)" d="m0 0h10l4 2-1 14h-10l-8 3-5 5-2 4 5 2h10l14-4 6-2-2 9-3 7-16 6-10 5-10 8-2 1v-9l4-8 2-3-5-3-3-5v-7l4-10 7-8 8-6z" fill="#384894"/>
<path transform="translate(1162,1422)" d="m0 0h36v8h-27v20h24v8h-24v14h27v9h-36z" fill="#384A96"/>
<path transform="translate(731,1422)" d="m0 0h36v8h-27v20h24v8h-24v14h27v9h-36z" fill="#384A96"/>
<path transform="translate(1015,1422)" d="m0 0h35v8h-26v20h24v8h-24v14h27v9h-36z" fill="#384995"/>
<path transform="translate(851,1422)" d="m0 0h35v8h-26v20h24v8h-24v14h27v9h-36z" fill="#384894"/>
<path transform="translate(471,1422)" d="m0 0h35v8h-26v20h24v8h-24v14h27v9h-36z" fill="#384894"/>
<path transform="translate(1749,1422)" d="m0 0h35v8h-26v20h23l1 1v7h-24v14h27v9h-36z" fill="#384996"/>
<path transform="translate(209,1422)" d="m0 0h27l10 5 6 10v11l-4 8-9 6-10 2h-11v17h-9zm9 7v27h15l5-3 4-5 1-2-1-9-6-7-3-1z" fill="#384995"/>
<path transform="translate(23,1422)" d="m0 0h13l10 4 7 6v3l-7 4-7-6-5-2h-9l-8 4-6 9-1 10 3 9 8 7 6 2 9-1 7-4 3-3 4 2 3 2-2 5-7 5-9 3h-10l-11-4-8-7-5-9-1-4v-11l4-10 7-8 6-4z" fill="#384995"/>
<path transform="translate(1708,1422)" d="m0 0h13l9 4 8 7-5 5-3 1-5-5-7-3h-8l-8 4-5 6-2 5v11l4 8 6 5 6 2 10-1 6-4 3-3 5 2 3 2-2 4-8 6-9 3h-10l-10-4-8-7-5-8-2-9 1-9 4-9 6-7 9-5z" fill="#384895"/>
<path transform="translate(1224,1421)" d="m0 0h8l10 4 4 4-1 4-4 3-3-1v-2l-5-2h-9l-5 5 1 7 3 3 17 3 5 4 3 6v11l-4 6-5 4-3 1h-14l-8-4-4-6 6-5h2l4 5 3 1h7l5-3 1-2v-6l-4-4-13-2-8-5-4-7v-9l3-6 6-5z" fill="#384995"/>
<path transform="translate(1374,1421)" d="m0 0h8l8 3 6 5-1 4-4 3-4-2-4-3h-9l-5 5v6l1 3 6 2 13 2 5 3 4 7v11l-4 6-8 5h-14l-8-4-4-5 5-5 3-1 4 5 3 1h7l5-3 1-2v-6l-4-4-16-3-6-5-3-6v-9l3-6 6-5z" fill="#384995"/>
<path transform="translate(1424,1421)" d="m0 0h8l10 4 5 6-6 5h-2l-4-4-2-1h-9l-5 5 1 7 3 3 17 3 5 4 3 5 1 8-3 8-7 6-3 1h-14l-8-4-3-4v-3l5-4h2l4 5 3 1h7l5-3 1-1v-8l-3-3-14-2-8-5-4-7v-8l4-8 5-4z" fill="#384995"/>
<path transform="translate(1811,1421)" d="m0 0h8l9 4 5 5v2l-5 4-4-2-4-3h-10l-4 4v7l4 4 2 1 14 2 7 6 2 5v8l-4 8-6 4-3 1h-13l-8-4-4-4 2-4 5-3 5 5 2 1h8l4-2 2-4-1-6-3-3-14-2-6-4-4-5-2-9 3-8 5-5z" fill="#384995"/>
<path transform="translate(1459,1422)" d="m0 0h9l1 42 3 5 6 3 9-2 3-4 1-3 1-41h8v45l-4 7-5 4-8 3h-7l-8-3-7-8-2-6z" fill="#384895"/>
<path transform="translate(1321,1422)" d="m0 0 3 4 19 42 5 11v2h-9l-2-4-28-1-2 5h-9l9-24zm0 20-9 26h21l-1-5-9-20z" fill="#384A96"/>
<path transform="translate(1587,1422)" d="m0 0 3 3 13 29 11 25v2h-9l-1-5h-29l-1 5h-9l1-5 16-41zm0 21-8 22v3h21l-9-21-2-4z" fill="#384A96"/>
<path transform="translate(286,1422)" d="m0 0 2 3 12 26 12 27v3h-8l-2-5-28 1-2 4h-9l3-10 19-48zm0 20-9 24v2h21l-2-6-9-20z" fill="#384A96"/>
<path transform="translate(580,1422)" d="m0 0 2 3 16 35 8 18v3h-9l-1-5-28 1-2 4h-9l3-10 19-48zm0 20-9 24v2h21l-2-6-9-20z" fill="#384A96"/>
<path transform="translate(617,1422)" d="m0 0h9v50h25v9h-34z" fill="#384A96"/>
<path transform="translate(831,1422)" d="m0 0h9v59h-9z" fill="#384A96"/>
<path transform="translate(451,1422)" d="m0 0h9v59h-9z" fill="#384A96"/>
<path transform="translate(1494,414)" d="m0 0h25l-6 8-18 21h-1z" fill="#384693"/>
<path transform="translate(842,1320)" d="m0 0 4 1 11 11-6 7-7 7-7-6-7-7 6-7z" fill="#384995"/>
<path transform="translate(1381,1195)" d="m0 0 4 2 10 10-2 4-10 10-4-2-10-10 2-4z" fill="#384A96"/>
<path transform="translate(727,1195)" d="m0 0 4 2 10 10-2 4-10 10-4-2-10-10 2-4z" fill="#384A96"/>
<path transform="translate(1678,1177)" d="m0 0 4 2 10 10-2 4-10 10-4-2-10-10 2-4z" fill="#384995"/>
<path transform="translate(812,1320)" d="m0 0 4 1 11 11-6 7-6 6-4-1-11-11 6-7z" fill="#384995"/>
<path transform="translate(281,1320)" d="m0 0 4 1 11 11-6 7-6 6-4-1-11-11 6-7z" fill="#384894"/>
<path transform="translate(55,1203)" d="m0 0 4 1 11 11-6 7-6 6-4-1-11-11 6-7z" fill="#384995"/>
<path transform="translate(521,1197)" d="m0 0 7 6 6 6-2 4-10 10-4-2-10-10 2-4 9-9z" fill="#384995"/>
<path transform="translate(311,1320)" d="m0 0 4 2 10 9v3l-8 7-4 4-4-2-8-7-3-4 9-9z" fill="#384895"/>
<path transform="translate(1694,1200)" d="m0 0 4 2 8 7 3 4-13 13-7-6-7-7 6-7z" fill="#384895"/>
<path transform="translate(1662,1200)" d="m0 0 4 2 10 10-6 7-7 7-7-6-7-7 6-7z" fill="#384995"/>
<path transform="translate(224,1201)" d="m0 0 4 2 10 10-2 4-11 10-7-6-6-6 2-4z" fill="#384995"/>
<path transform="translate(1161,1322)" d="m0 0 4 2 10 10-2 4-11 10-7-6-6-6 2-4z" fill="#384894"/>
<path transform="translate(760,1195)" d="m0 0 8 6 6 6-2 4-11 10-14-12 2-4 8-7z" fill="#384894"/>
<path transform="translate(88,1203)" d="m0 0 4 2 11 10-6 7-7 6-4-2-10-9 2-4z" fill="#384894"/>
<path transform="translate(1070,1199)" d="m0 0 4 2 10 10-6 7-6 6-4-2-8-7-3-4 8-8z" fill="#384894"/>
<path transform="translate(488,1197)" d="m0 0 7 6 7 7-4 5-8 7-2 1-8-7-5-5v-2l8-7z" fill="#384894"/>
<path transform="translate(1414,1195)" d="m0 0 14 12-2 4-11 10-14-12 2-4 8-7z" fill="#384894"/>
<path transform="translate(998,1201)" d="m0 0" fill="#3870B3"/>
</svg>
